<?xml version="1.0" encoding="UTF-8" standalone="no"?>
<svg
   xmlns:dc="http://purl.org/dc/elements/1.1/"
   xmlns:cc="http://creativecommons.org/ns#"
   xmlns:rdf="http://www.w3.org/1999/02/22-rdf-syntax-ns#"
   xmlns:svg="http://www.w3.org/2000/svg"
   xmlns="http://www.w3.org/2000/svg"
   xmlns:sodipodi="http://sodipodi.sourceforge.net/DTD/sodipodi-0.dtd"
   xmlns:inkscape="http://www.inkscape.org/namespaces/inkscape"
   width="79.361389mm"
   height="10.5833mm"
   viewBox="0 0 79.361389 10.5833"
   version="1.1"
   id="svg8"
   inkscape:version="1.0 (4035a4fb49, 2020-05-01)"
   sodipodi:docname="logo.svg">
  <defs
     id="defs2" />
  <sodipodi:namedview
     id="base"
     pagecolor="#ffffff"
     bordercolor="#666666"
     borderopacity="1.0"
     inkscape:pageopacity="0.0"
     inkscape:pageshadow="2"
     inkscape:zoom="1.33"
     inkscape:cx="211.37306"
     inkscape:cy="135.19467"
     inkscape:document-units="mm"
     inkscape:current-layer="layer1"
     inkscape:document-rotation="0"
     showgrid="false"
     inkscape:window-width="1337"
     inkscape:window-height="912"
     inkscape:window-x="305"
     inkscape:window-y="68"
     inkscape:window-maximized="0" />
  <metadata
     id="metadata5">
    <rdf:RDF>
      <cc:Work
         rdf:about="">
        <dc:format>image/svg+xml</dc:format>
        <dc:type
           rdf:resource="http://purl.org/dc/dcmitype/StillImage" />
        <dc:title />
      </cc:Work>
    </rdf:RDF>
  </metadata>
  <g
     inkscape:label="Layer 1"
     inkscape:groupmode="layer"
     id="layer1">
    <g
       aria-label="jitse"
       id="text20"
       style="font-style:normal;font-weight:normal;font-size:10.5833px;line-height:1.25;font-family:sans-serif;fill:#3d70b2;fill-opacity:1;stroke:none;stroke-width:0.264583"
       transform="translate(-41.589671,-30.371365)">
      <path
         d="m 42.99725,30.96403 q 0,-0.306916 0.15875,-0.444499 0.158749,-0.148166 0.391582,-0.148166 0.211666,0 0.370415,0.148166 0.169333,0.137583 0.169333,0.444499 0,0.296332 -0.169333,0.444499 -0.158749,0.148166 -0.370415,0.148166 -0.232833,0 -0.391582,-0.148166 -0.15875,-0.148167 -0.15875,-0.444499 z m -0.592664,9.747219 q -0.264583,0 -0.465666,-0.04233 -0.201082,-0.03175 -0.349249,-0.08467 v -0.751414 q 0.15875,0.04233 0.328083,0.07408 0.169333,0.03175 0.370415,0.03175 0.338666,0 0.560915,-0.190499 0.222249,-0.179916 0.222249,-0.698498 v -6.551063 h 0.931331 v 6.519313 q 0,0.793747 -0.380999,1.238246 -0.380999,0.455082 -1.217079,0.455082 z"
         style="fill:#3d70b2;fill-opacity:1;stroke-width:0.264583"
         id="path22" />
      <path
         d="m 46.278067,30.371365 q 0.211666,0 0.370416,0.148166 0.169332,0.137583 0.169332,0.444499 0,0.296332 -0.169332,0.444499 -0.15875,0.148166 -0.370416,0.148166 -0.232833,0 -0.391582,-0.148166 -0.158749,-0.148167 -0.158749,-0.444499 0,-0.306916 0.158749,-0.444499 0.158749,-0.148166 0.391582,-0.148166 z m 0.455082,2.127243 v 5.672649 h -0.93133 v -5.672649 z"
         style="fill:#3d70b2;fill-opacity:1;stroke-width:0.264583"
         id="path24" />
      <path
         d="m 50.426714,37.515092 q 0.211666,0 0.433916,-0.03175 0.222249,-0.04233 0.359832,-0.08467 v 0.709081 q -0.148166,0.07408 -0.423332,0.116417 -0.275166,0.05292 -0.529165,0.05292 -0.444499,0 -0.825497,-0.148166 -0.370416,-0.15875 -0.603249,-0.539748 -0.232832,-0.380999 -0.232832,-1.068914 v -3.301989 h -0.804331 v -0.444499 l 0.814914,-0.370415 0.370416,-1.206496 h 0.550331 v 1.301745 h 1.640412 v 0.719665 h -1.640412 v 3.280823 q 0,0.518581 0.243416,0.772581 0.253999,0.243415 0.645581,0.243415 z"
         style="fill:#3d70b2;fill-opacity:1;stroke-width:0.264583"
         id="path26" />
      <path
         d="m 56.046427,36.604929 q 0,0.825497 -0.613832,1.248829 -0.613831,0.423332 -1.650994,0.423332 -0.592665,0 -1.02658,-0.09525 -0.423332,-0.09525 -0.751415,-0.264582 v -0.846664 q 0.338666,0.169333 0.814914,0.317499 0.486832,0.137583 0.984247,0.137583 0.709081,0 1.02658,-0.22225 0.317499,-0.232832 0.317499,-0.613831 0,-0.211666 -0.116416,-0.380999 -0.116416,-0.169333 -0.423332,-0.338665 -0.296332,-0.169333 -0.857247,-0.380999 -0.550332,-0.211666 -0.941914,-0.423332 -0.391582,-0.211666 -0.603248,-0.507998 -0.211666,-0.296333 -0.211666,-0.761998 0,-0.719664 0.582081,-1.111246 0.592665,-0.391583 1.545162,-0.391583 0.518582,0 0.963081,0.105833 0.455081,0.09525 0.846663,0.275166 l -0.317499,0.740831 q -0.359832,-0.148166 -0.751414,-0.253999 -0.391582,-0.105833 -0.804331,-0.105833 -0.571498,0 -0.878413,0.190499 -0.296333,0.179916 -0.296333,0.497415 0,0.232833 0.137583,0.402166 0.137583,0.158749 0.455082,0.317499 0.328082,0.148166 0.867831,0.359832 0.539748,0.201083 0.920747,0.412749 0.380998,0.211666 0.582081,0.518581 0.201083,0.296333 0.201083,0.751415 z"
         style="fill:#3d70b2;fill-opacity:1;stroke-width:0.264583"
         id="path28" />
      <path
         d="m 59.61298,32.392775 q 0.730248,0 1.248829,0.317499 0.529165,0.317499 0.804331,0.899581 0.285749,0.571498 0.285749,1.344079 v 0.560915 h -3.884071 q 0.02117,0.96308 0.486832,1.471078 0.476248,0.497416 1.322912,0.497416 0.539749,0 0.952497,-0.09525 0.423332,-0.105833 0.867831,-0.296333 v 0.814915 q -0.433915,0.190499 -0.857247,0.275165 -0.423332,0.09525 -1.005414,0.09525 -0.804331,0 -1.428745,-0.328082 -0.613832,-0.328083 -0.96308,-0.973664 -0.338666,-0.656164 -0.338666,-1.598078 0,-0.93133 0.306916,-1.598078 0.317499,-0.666748 0.878413,-1.02658 0.571499,-0.359833 1.322913,-0.359833 z m -0.01058,0.761998 q -0.666748,0 -1.05833,0.433915 -0.380999,0.423332 -0.455082,1.18533 h 2.889241 Q 60.967649,34.054353 60.639563,33.609855 60.311481,33.154773 59.6024,33.154773 Z"
         style="fill:#3d70b2;fill-opacity:1;stroke-width:0.264583"
         id="path30" />
    </g>
    <text
       xml:space="preserve"
       style="font-style:normal;font-weight:normal;font-size:10.5833px;line-height:1.25;font-family:sans-serif;fill:#7e7e7e;fill-opacity:1;stroke:none;stroke-width:0.264583"
       x="21.10042"
       y="8.0433073"
       id="text858"><tspan
         sodipodi:role="line"
         id="tspan856"
         x="21.10042"
         y="8.0433073"
         style="fill:#7e7e7e;fill-opacity:1;stroke-width:0.264583">meulenijzer</tspan></text>
  </g>
</svg>
